# Export of Cubik Model: Cubik Model
# Designed by TFOG_KGf with Cubik Studio
# from Cubik OBJ Exporter v1.0
mtllib CubikModel.mtl
v -8.375 -16 -8.375 1 1 1
v -7.625 -16 -8.375 1 1 1
v -7.625 -16 -7.625 1 1 1
v -8.375 -16 -7.625 1 1 1
v -7.625 0 -8.375 1 1 1
v -8.375 0 -8.375 1 1 1
v -8.375 0 -7.625 1 1 1
v -7.625 0 -7.625 1 1 1
v -7.625 0 -7.625 1 1 1
v -8.375 0 -7.625 1 1 1
v -8.375 -16 -7.625 1 1 1
v -7.625 -16 -7.625 1 1 1
v -8.375 0 -8.375 1 1 1
v -7.625 0 -8.375 1 1 1
v -7.625 -16 -8.375 1 1 1
v -8.375 -16 -8.375 1 1 1
v -7.625 0 -8.375 1 1 1
v -7.625 0 -7.625 1 1 1
v -7.625 -16 -7.625 1 1 1
v -7.625 -16 -8.375 1 1 1
v -8.375 0 -7.625 1 1 1
v -8.375 0 -8.375 1 1 1
v -8.375 -16 -8.375 1 1 1
v -8.375 -16 -7.625 1 1 1
vn 0 -1 0
vn 0 1 0
vn 0 0 1
vn 0 0 -1
vn 1 0 0
vn -1 0 0
vt 0.8070068 0.008178711
vt 0.8062744 0.008178711
vt 0.8062744 0.007446289
vt 0.8070068 0.007446289
vt 0.8070068 0.015625
vt 0.8062744 0.015625
vt 0.8062744 0
vt 0.8070068 0
v -8.625 0 -8.625 1 1 1
v -7.375 0 -8.625 1 1 1
v -7.375 0 -7.375 1 1 1
v -8.625 0 -7.375 1 1 1
v -7.375 24 -8.625 1 1 1
v -8.625 24 -8.625 1 1 1
v -8.625 24 -7.375 1 1 1
v -7.375 24 -7.375 1 1 1
v -7.375 24 -7.375 1 1 1
v -8.625 24 -7.375 1 1 1
v -8.625 0 -7.375 1 1 1
v -7.375 0 -7.375 1 1 1
v -8.625 24 -8.625 1 1 1
v -7.375 24 -8.625 1 1 1
v -7.375 0 -8.625 1 1 1
v -8.625 0 -8.625 1 1 1
v -7.375 24 -8.625 1 1 1
v -7.375 24 -7.375 1 1 1
v -7.375 0 -7.375 1 1 1
v -7.375 0 -8.625 1 1 1
v -8.625 24 -7.375 1 1 1
v -8.625 24 -8.625 1 1 1
v -8.625 0 -8.625 1 1 1
v -8.625 0 -7.375 1 1 1
vt 0.8238525 0.008422852
vt 0.8226318 0.008422852
vt 0.8226318 0.007202148
vt 0.8238525 0.007202148
vt 0.8238525 0.015625
vt 0.8226318 0.015625
vt 0.8226318 0
vt 0.8238525 0
v -8.001 16 -16 1 1 1
v -8 16 -16 1 1 1
v -8 16 0 1 1 1
v -8.001 16 0 1 1 1
v -8 32 -16 1 1 1
v -8.001 32 -16 1 1 1
v -8.001 32 0 1 1 1
v -8 32 0 1 1 1
v -8 32 0 1 1 1
v -8.001 32 0 1 1 1
v -8.001 16 0 1 1 1
v -8 16 0 1 1 1
v -8.001 32 -16 1 1 1
v -8 32 -16 1 1 1
v -8 16 -16 1 1 1
v -8.001 16 -16 1 1 1
v -8 32 -16 1 1 1
v -8 32 0 1 1 1
v -8 16 0 1 1 1
v -8 16 -16 1 1 1
v -8.001 32 0 1 1 1
v -8.001 32 -16 1 1 1
v -8.001 16 -16 1 1 1
v -8.001 16 0 1 1 1
vt 0 0.78125
vt 0.7568359 0.78125
vt 0.78125 0.78125
vt 0 0
vt 0.78125 0
v -13.81442 16 -13.813 1 1 1
v -13.81371 16 -13.81371 1 1 1
v -2.5 16 -2.5 1 1 1
v -2.500707 16 -2.499293 1 1 1
v -13.81371 32 -13.81371 1 1 1
v -13.81442 32 -13.813 1 1 1
v -2.500707 32 -2.499293 1 1 1
v -2.5 32 -2.5 1 1 1
v -2.5 32 -2.5 1 1 1
v -2.500707 32 -2.499293 1 1 1
v -2.500707 16 -2.499293 1 1 1
v -2.5 16 -2.5 1 1 1
v -13.81442 32 -13.813 1 1 1
v -13.81371 32 -13.81371 1 1 1
v -13.81371 16 -13.81371 1 1 1
v -13.81442 16 -13.813 1 1 1
v -13.81371 32 -13.81371 1 1 1
v -2.5 32 -2.5 1 1 1
v -2.5 16 -2.5 1 1 1
v -13.81371 16 -13.81371 1 1 1
v -2.500707 32 -2.499293 1 1 1
v -13.81442 32 -13.813 1 1 1
v -13.81442 16 -13.813 1 1 1
v -2.500707 16 -2.499293 1 1 1
vn 0.7071068 0 0.7071067
vn -0.7071068 0 -0.7071067
vn 0.7071067 0 -0.7071068
vn -0.7071067 0 0.7071068
v -16 16 -8.001 1 1 1
v 0 16 -8.001 1 1 1
v 0 16 -8 1 1 1
v -16 16 -8 1 1 1
v 0 32 -8.001 1 1 1
v -16 32 -8.001 1 1 1
v -16 32 -8 1 1 1
v 0 32 -8 1 1 1
v 0 32 -8 1 1 1
v -16 32 -8 1 1 1
v -16 16 -8 1 1 1
v 0 16 -8 1 1 1
v -16 32 -8.001 1 1 1
v 0 32 -8.001 1 1 1
v 0 16 -8.001 1 1 1
v -16 16 -8.001 1 1 1
v 0 32 -8.001 1 1 1
v 0 32 -8 1 1 1
v 0 16 -8 1 1 1
v 0 16 -8.001 1 1 1
v -16 32 -8 1 1 1
v -16 32 -8.001 1 1 1
v -16 16 -8.001 1 1 1
v -16 16 -8 1 1 1
v -13.81441 16 -2.186997 1 1 1
v -2.500707 16 -13.50071 1 1 1
v -2.5 16 -13.5 1 1 1
v -13.81371 16 -2.186291 1 1 1
v -2.500707 32 -13.50071 1 1 1
v -13.81441 32 -2.186997 1 1 1
v -13.81371 32 -2.186291 1 1 1
v -2.5 32 -13.5 1 1 1
v -2.5 32 -13.5 1 1 1
v -13.81371 32 -2.186291 1 1 1
v -13.81371 16 -2.186291 1 1 1
v -2.5 16 -13.5 1 1 1
v -13.81441 32 -2.186997 1 1 1
v -2.500707 32 -13.50071 1 1 1
v -2.500707 16 -13.50071 1 1 1
v -13.81441 16 -2.186997 1 1 1
v -2.500707 32 -13.50071 1 1 1
v -2.5 32 -13.5 1 1 1
v -2.5 16 -13.5 1 1 1
v -2.500707 16 -13.50071 1 1 1
v -13.81371 32 -2.186291 1 1 1
v -13.81441 32 -2.186997 1 1 1
v -13.81441 16 -2.186997 1 1 1
v -13.81371 16 -2.186291 1 1 1
g Element #1
usemtl Element
f 1/1/1 2/2/1 4/4/1
f 2/2/1 3/3/1 4/4/1
f 5/3/2 6/4/2 8/2/2
f 6/4/2 7/1/2 8/2/2
f 9/5/3 10/6/3 12/8/3
f 10/6/3 11/7/3 12/8/3
f 13/5/4 14/6/4 16/8/4
f 14/6/4 15/7/4 16/8/4
f 17/5/5 18/6/5 20/8/5
f 18/6/5 19/7/5 20/8/5
f 21/5/6 22/6/6 24/8/6
f 22/6/6 23/7/6 24/8/6
g Element #2
usemtl Element
f 25/9/1 26/10/1 28/12/1
f 26/10/1 27/11/1 28/12/1
f 29/11/2 30/12/2 32/10/2
f 30/12/2 31/9/2 32/10/2
f 33/13/3 34/14/3 36/16/3
f 34/14/3 35/15/3 36/16/3
f 37/13/4 38/14/4 40/16/4
f 38/14/4 39/15/4 40/16/4
f 41/13/5 42/14/5 44/16/5
f 42/14/5 43/15/5 44/16/5
f 45/13/6 46/14/6 48/16/6
f 46/14/6 47/15/6 48/16/6
g Element #3
usemtl Element
f 49/17/1 50/17/1 52/17/1
f 50/17/1 51/17/1 52/17/1
f 53/17/2 54/17/2 56/17/2
f 54/17/2 55/17/2 56/17/2
f 57/18/3 58/17/3 60/18/3
f 58/17/3 59/17/3 60/18/3
f 61/17/4 62/17/4 64/17/4
f 62/17/4 63/17/4 64/17/4
f 65/19/5 66/17/5 68/21/5
f 66/17/5 67/20/5 68/21/5
f 69/19/6 70/17/6 72/21/6
f 70/17/6 71/20/6 72/21/6
g Element #4
usemtl Element
f 73/17/1 74/17/1 76/17/1
f 74/17/1 75/17/1 76/17/1
f 77/17/2 78/17/2 80/17/2
f 78/17/2 79/17/2 80/17/2
f 81/18/7 82/17/7 84/18/7
f 82/17/7 83/17/7 84/18/7
f 85/17/8 86/17/8 88/17/8
f 86/17/8 87/17/8 88/17/8
f 89/19/9 90/17/9 92/21/9
f 90/17/9 91/20/9 92/21/9
f 93/19/10 94/17/10 96/21/10
f 94/17/10 95/20/10 96/21/10
g Element #5
usemtl Element
f 97/17/1 98/17/1 100/17/1
f 98/17/1 99/17/1 100/17/1
f 101/17/2 102/17/2 104/17/2
f 102/17/2 103/17/2 104/17/2
f 105/19/3 106/17/3 108/21/3
f 106/17/3 107/20/3 108/21/3
f 109/19/4 110/17/4 112/21/4
f 110/17/4 111/20/4 112/21/4
f 113/17/5 114/17/5 116/17/5
f 114/17/5 115/17/5 116/17/5
f 117/17/6 118/17/6 120/17/6
f 118/17/6 119/17/6 120/17/6
g Element #6
usemtl Element
f 121/17/1 122/17/1 124/17/1
f 122/17/1 123/17/1 124/17/1
f 125/17/2 126/17/2 128/17/2
f 126/17/2 127/17/2 128/17/2
f 129/19/7 130/17/7 132/21/7
f 130/17/7 131/20/7 132/21/7
f 133/19/8 134/17/8 136/21/8
f 134/17/8 135/20/8 136/21/8
f 137/17/9 138/17/9 140/17/9
f 138/17/9 139/17/9 140/17/9
f 141/17/10 142/17/10 144/17/10
f 142/17/10 143/17/10 144/17/10
